<?xml version="1.0" standalone="no"?>
<!DOCTYPE svg PUBLIC "-//W3C//DTD SVG 20010904//EN"
 "http://www.w3.org/TR/2001/REC-SVG-20010904/DTD/svg10.dtd">
<svg version="1.0" xmlns="http://www.w3.org/2000/svg"
 width="500.000000pt" height="500.000000pt" viewBox="0 0 500.000000 500.000000"
 preserveAspectRatio="xMidYMid meet">

<g transform="translate(0.000000,500.000000) scale(0.100000,-0.100000)"
fill="#000000" stroke="none">
<path d="M1370 4024 c0 -31 0 -31 67 -38 95 -10 145 -34 169 -82 18 -38 19
-71 19 -969 0 -910 0 -931 -20 -969 -29 -57 -59 -74 -152 -88 -83 -11 -83 -11
-83 -41 l0 -30 465 8 c517 8 481 12 451 -59 -16 -39 -59 -62 -138 -71 -52 -7
-58 -10 -58 -31 l0 -24 375 0 375 0 0 23 c0 22 -5 24 -91 34 -103 12 -133 28
-164 89 -18 36 -20 63 -23 337 l-4 297 160 0 c98 0 193 6 247 15 224 39 384
149 465 320 50 105 64 169 64 285 -1 162 -47 275 -155 374 -64 60 -110 87
-197 117 -110 38 -166 42 -614 43 l-438 1 0 -26 c0 -25 3 -27 59 -32 76 -6
110 -24 135 -67 21 -34 21 -49 24 -799 l3 -763 -133 4 c-154 5 -197 19 -225
70 -17 31 -18 84 -18 983 0 892 1 953 18 978 27 42 58 56 145 69 l82 12 0 31
0 30 -405 0 -405 0 0 -31z m1613 -544 c159 -64 236 -218 237 -477 0 -138 -20
-235 -67 -331 -41 -84 -82 -123 -173 -166 -64 -30 -69 -31 -243 -34 l-178 -4
3 463 c4 515 4 518 70 559 30 19 45 21 163 17 106 -3 141 -8 188 -27z"/>
<path d="M2926 2388 c-3 -13 -10 -54 -16 -91 -31 -193 -95 -307 -204 -360
l-57 -29 3 -46 3 -47 184 -3 183 -2 -6 37 c-3 21 -8 156 -12 301 l-7 262 -33
0 c-27 0 -35 -5 -38 -22z"/>
<path d="M1613 1259 c14 -8 17 -25 17 -114 0 -89 -3 -106 -17 -114 -13 -8 7
-10 75 -11 l92 0 0 38 -1 37 -14 -32 c-13 -30 -18 -33 -60 -33 l-45 0 0 114
c0 101 2 115 18 119 9 3 -5 5 -33 6 -38 0 -46 -2 -32 -10z"/>
<path d="M1818 1263 c8 -3 12 -37 12 -118 0 -81 -4 -115 -12 -118 -7 -3 29 -6
80 -6 l92 -1 0 38 -1 37 -14 -32 c-13 -30 -18 -33 -60 -33 l-45 0 0 55 c0 49
2 55 20 55 12 0 24 -10 30 -22 7 -18 9 -13 9 27 0 40 -2 45 -9 28 -6 -13 -18
-23 -30 -23 -18 0 -20 6 -20 55 l0 55 44 0 c39 0 45 -3 54 -27 l10 -28 1 33 1
32 -87 -1 c-49 0 -82 -3 -75 -6z"/>
<path d="M2033 1263 c15 -4 17 -18 17 -118 0 -100 -2 -114 -17 -118 -10 -3 7
-5 37 -5 42 -1 50 1 33 8 -18 8 -23 17 -23 48 0 38 1 39 41 45 55 7 79 31 79
78 0 54 -26 69 -115 68 -38 -1 -62 -3 -52 -6z m127 -22 c26 -50 -2 -111 -51
-111 -29 0 -29 0 -29 58 0 32 3 62 7 65 14 15 63 7 73 -12z"/>
<path d="M2309 1244 c-5 -15 -7 -29 -4 -32 3 -3 5 -1 5 4 1 7 40 -85 40 -93 0
-2 -18 -3 -40 -3 -33 0 -38 3 -34 18 5 14 4 15 -5 2 -18 -25 -13 -30 37 -30
46 0 49 -1 61 -36 11 -30 11 -38 0 -45 -9 -6 2 -8 31 -8 25 0 40 3 33 5 -7 3
-33 59 -59 125 -25 65 -48 119 -50 119 -3 0 -9 -12 -15 -26z"/>
<path d="M2463 1263 c15 -4 17 -18 17 -118 0 -100 -2 -114 -17 -118 -10 -3 5
-5 32 -6 38 0 46 2 33 10 -13 7 -18 23 -18 59 0 45 2 50 23 50 34 0 43 -11 59
-65 11 -40 18 -51 37 -53 13 -2 28 1 33 6 7 7 4 10 -8 9 -13 -2 -21 9 -28 34
-6 21 -20 46 -30 58 -11 12 -14 21 -8 21 20 0 42 31 42 60 0 44 -31 60 -115
59 -38 -1 -62 -3 -52 -6z m131 -35 c16 -44 -6 -78 -49 -78 l-35 0 0 48 c0 58
5 64 44 60 23 -2 33 -10 40 -30z"/>
<path d="M2693 1259 c14 -8 17 -25 17 -114 0 -89 -3 -106 -17 -114 -14 -8 -5
-10 37 -10 43 0 50 2 33 9 -20 8 -23 17 -23 60 0 47 2 51 22 48 12 -2 28 -14
35 -28 12 -23 13 -21 12 30 0 47 -2 52 -11 33 -7 -15 -20 -23 -35 -23 -23 0
-24 3 -21 53 l3 52 45 0 c39 0 45 -3 51 -25 4 -14 7 -18 8 -8 1 9 4 23 7 32 5
14 -6 16 -87 16 -69 -1 -89 -3 -76 -11z"/>
<path d="M2893 1259 c14 -8 17 -25 17 -104 0 -112 13 -135 78 -135 67 0 82 27
82 144 0 70 3 87 18 95 13 8 9 10 -23 10 -22 -1 -32 -3 -22 -6 15 -4 17 -17
17 -97 0 -110 -13 -136 -65 -136 -24 0 -38 6 -45 19 -15 29 -13 208 3 214 6 3
-8 6 -33 6 -35 0 -41 -2 -27 -10z"/>
<path d="M3133 1263 c15 -4 17 -18 17 -118 0 -100 -2 -114 -17 -118 -10 -3 0
-5 21 -6 35 -1 37 1 23 12 -15 10 -17 27 -15 107 l3 95 24 -65 c14 -36 33 -85
44 -110 l19 -45 13 31 c7 17 15 41 19 55 5 19 3 18 -8 -5 -13 -29 -13 -29 -52
73 l-39 101 -35 -1 c-19 -1 -27 -3 -17 -6z"/>
<path d="M3330 1244 c-13 -32 -13 -43 0 -24 7 10 10 -16 10 -82 0 -82 -3 -99
-17 -107 -14 -8 -7 -10 32 -10 39 0 46 2 33 10 -15 8 -18 25 -18 114 0 89 3
106 18 114 14 9 11 10 -16 11 -26 0 -34 -5 -42 -26z"/>
<path d="M3306 1185 c-9 -26 -7 -32 5 -12 6 10 9 21 6 23 -2 3 -7 -2 -11 -11z"/>
<path d="M2244 1078 c-3 -13 -13 -31 -22 -40 -14 -17 -12 -18 24 -17 21 1 31
3 20 6 -15 4 -17 11 -13 39 7 39 2 45 -9 12z"/>
</g>
</svg>
